<?xml version="1.0" standalone="no"?>
<!DOCTYPE svg PUBLIC "-//W3C//DTD SVG 20010904//EN"
 "http://www.w3.org/TR/2001/REC-SVG-20010904/DTD/svg10.dtd">
<svg version="1.0" xmlns="http://www.w3.org/2000/svg"
 width="700.000000pt" height="700.000000pt" viewBox="0 0 700.000000 700.000000"
 preserveAspectRatio="xMidYMid meet">
<metadata>
Created by potrace 1.14, written by Peter Selinger 2001-2017
</metadata>
<g transform="translate(0.000000,700.000000) scale(0.100000,-0.100000)"
fill="#000000" stroke="none">
<path d="M830 4944 c-276 -73 -395 -399 -232 -637 140 -203 434 -234 618 -65
97 89 139 195 131 328 -9 154 -93 279 -232 346 -88 42 -193 52 -285 28z"/>
<path d="M4300 4949 c-225 -59 -356 -262 -315 -489 19 -109 119 -237 223 -287
272 -129 587 61 597 362 5 173 -120 350 -285 403 -55 17 -173 23 -220 11z"/>
<path d="M2117 4372 c-284 -285 -514 -522 -510 -526 5 -4 3 -6 -3 -4 -7 2
-260 -245 -563 -549 l-552 -552 3 -349 3 -350 1310 0 1310 0 0 347 0 346 -500
2 c-275 1 -640 3 -812 3 l-312 0 826 826 826 825 -249 250 c-137 137 -251 249
-254 249 -3 0 -238 -233 -523 -518z"/>
<path d="M4044 3945 c-2 -5 -3 -433 -2 -950 l3 -940 1220 -1 c671 0 1226 2
1233 4 9 3 12 82 12 351 l0 346 -885 -1 -885 0 -2 600 -3 601 -344 0 c-223 0
-345 -3 -347 -10z"/>
</g>
</svg>
