<?xml version="1.0" encoding="utf-8"?>
<!-- Generator: Adobe Illustrator 28.0.0, SVG Export Plug-In . SVG Version: 6.00 Build 0)  -->
<svg version="1.1" id="Layer_1" xmlns="http://www.w3.org/2000/svg" xmlns:xlink="http://www.w3.org/1999/xlink" x="0px" y="0px"
	 viewBox="0 0 800 800" style="enable-background:new 0 0 800 800;" xml:space="preserve">
<style type="text/css">
	.st0{fill-rule:evenodd;clip-rule:evenodd;fill:#FFFFFF;}
</style>
<g id="SVGRepo_bgCarrier">
</g>
<g id="SVGRepo_tracerCarrier">
</g>
<g id="SVGRepo_iconCarrier">
	<path class="st0" d="M166.7,333.3c0-92,74.6-166.7,166.7-166.7h133.3c92,0,166.7,74.6,166.7,166.7v27.9
		c-35.1-41.3-99.1-41.1-133.9,0.7c-8.4,10-23.8,10-32.1,0c-35-42-99.5-42-134.5,0c-8.4,10-23.8,10-32.1,0
		c-34.8-41.8-98.8-42-133.9-0.7V333.3z M700,333.3V350c8.5,0,17.1,3.3,23.6,9.8c13,13,13,34.1,0,47.1l-6.1,6.1
		c-12.3,12.3-27.3,20.3-43,24c34.1,10.5,58.9,42.2,58.9,79.7c0,28.7-14.5,54-36.6,69c2.1,4.3,3.2,9.2,3.2,14.3v16.7
		c0,64.4-52.2,116.7-116.7,116.7H216.7c-64.4,0-116.7-52.2-116.7-116.7V600c0-5.1,1.2-10,3.2-14.3c-22.1-15-36.6-40.3-36.6-69
		c0-37.5,24.8-69.2,58.9-79.7c-15.7-3.7-30.7-11.7-43-24l-6.1-6.1c-13-13-13-34.1,0-47.1c6.5-6.5,15-9.8,23.6-9.8v-16.7
		C100,204.5,204.5,100,333.3,100h133.3C595.5,100,700,204.5,700,333.3z M178.7,433.3h115.8c-16.9-4.4-32.8-14-45-28.7
		c-8.4-10-23.8-10-32.1,0l-1.9,2.3C205.2,419.2,192.5,428,178.7,433.3z M338.9,433.3h122.2c-16.9-4.4-32.8-14-45-28.7
		c-8.4-10-23.8-10-32.1,0C371.7,419.4,355.8,428.9,338.9,433.3z M505.6,433.3h115.8c-13.8-5.3-26.5-14.1-36.7-26.4l-1.9-2.3
		c-8.4-10-23.8-10-32.1,0C538.4,419.4,522.5,428.9,505.6,433.3z M166.7,600v16.7c0,27.6,22.4,50,50,50h366.7c27.6,0,50-22.4,50-50
		V600H166.7z M133.3,516.7c0-9.2,7.5-16.7,16.7-16.7h500c9.2,0,16.7,7.5,16.7,16.7c0,9.2-7.5,16.7-16.7,16.7H150
		C140.8,533.3,133.3,525.9,133.3,516.7z"/>
</g>
</svg>
